<svg width="18" height="18" viewBox="0 0 18 18" fill="none" xmlns="http://www.w3.org/2000/svg">
<circle cx="9" cy="9" r="9" fill="#5EB1FF" fill-opacity="0.1"/>
<path d="M10 6.97482C10 6.51277 10 6.28174 10.093 6.16308C10.1738 6.05989 10.2964 5.99986 10.426 6C10.575 6.00016 10.7521 6.14448 11.1063 6.43312L13.591 8.45831C13.8182 8.64347 13.9318 8.73606 13.973 8.84791C14.009 8.94597 14.009 9.05403 13.973 9.15209C13.9318 9.26394 13.8182 9.35653 13.591 9.54169L11.1063 11.5669C10.7521 11.8555 10.575 11.9998 10.426 12C10.2964 12.0001 10.1738 11.9401 10.093 11.8369C10 11.7183 10 11.4872 10 11.0252V6.97482Z" fill="#5EB1FF"/>
<path d="M4 8.5C4 8.22386 4.22386 8 4.5 8H12V10H4.5C4.22386 10 4 9.77614 4 9.5V8.5Z" fill="#5EB1FF"/>
</svg>
