<svg width="20" height="20" viewBox="0 0 20 20" fill="none" xmlns="http://www.w3.org/2000/svg">
<path d="M10 20C15.5228 20 20 15.5228 20 10C20 4.47715 15.5228 0 10 0C4.47715 0 0 4.47715 0 10C0 15.5228 4.47715 20 10 20Z" fill="#00DB82"/>
<path d="M8.87988 9.55994C8.53488 9.55994 8.25488 9.85494 8.25488 10.2199C8.25488 10.5849 8.53488 10.8749 8.87988 10.8749C9.22488 10.8749 9.50488 10.5799 9.50488 10.2149C9.50488 9.84994 9.22488 9.55994 8.87988 9.55994Z" fill="white"/>
<path d="M11.1201 9.55994C10.7751 9.55994 10.4951 9.85494 10.4951 10.2199C10.4951 10.5799 10.7751 10.8749 11.1201 10.8749C11.4651 10.8749 11.7451 10.5799 11.7451 10.2149C11.7451 9.84994 11.4651 9.55994 11.1201 9.55994Z" fill="white"/>
<path d="M14.0499 4.58997H5.92492C5.23492 4.58997 4.66992 5.14997 4.66992 5.80997V13.805C4.66992 14.5 5.22992 15.025 5.91992 15.025H12.8349L12.5049 13.94L13.2949 14.63L14.0199 15.29L15.3399 16.41V5.80997C15.3049 5.14997 14.7499 4.58997 14.0549 4.58997H14.0499ZM11.6899 12.325C11.6899 12.325 11.4599 12.06 11.2999 11.835C12.0899 11.605 12.3849 11.145 12.3849 11.145C12.1249 11.31 11.8899 11.41 11.6949 11.51C11.3999 11.64 11.1049 11.705 10.8099 11.775C10.2099 11.875 9.68492 11.84 9.22992 11.775C8.92492 11.72 8.62992 11.635 8.34492 11.51C8.20992 11.445 8.04992 11.38 7.88492 11.315C7.86992 11.315 7.86492 11.31 7.85492 11.3C7.85492 11.3 7.83992 11.28 7.82492 11.28H7.79492C7.69492 11.215 7.62992 11.18 7.62992 11.18C7.62992 11.18 7.92492 11.64 8.68492 11.87C8.48492 12.1 8.28992 12.365 8.28992 12.365C6.93992 12.335 6.44492 11.475 6.44492 11.475C6.44492 9.56497 7.33492 8.01997 7.33492 8.01997C8.22492 7.36497 9.04492 7.39497 9.04492 7.39497L9.10992 7.45997C8.02492 7.72497 7.52992 8.21497 7.52992 8.21497C7.52992 8.21497 7.65992 8.14997 7.88992 8.04997C8.54992 7.78497 9.03992 7.68997 9.27492 7.68997H9.37492C9.73492 7.65997 10.1649 7.62497 10.5949 7.68997C11.1899 7.75497 11.7799 7.91997 12.4399 8.24997C12.4399 8.24997 11.9449 7.78997 10.9249 7.49497L11.0149 7.40497C11.1549 7.40497 11.9049 7.42997 12.6999 8.02497C12.6999 8.02497 13.5949 9.57497 13.5949 11.48C13.5649 11.445 13.0399 12.3 11.6899 12.33V12.325Z" fill="white"/>
</svg>
