<svg width="15" height="14" viewBox="0 0 15 14" fill="none" xmlns="http://www.w3.org/2000/svg">
<path fill-rule="evenodd" clip-rule="evenodd" d="M2.50759 0.399903C2.51676 0.399903 2.52596 0.399904 2.53519 0.399904L12.2925 0.399903C12.6406 0.399888 12.9421 0.399876 13.1778 0.421069C13.4047 0.44147 13.7035 0.488812 13.9439 0.687273C14.2462 0.936911 14.4146 1.31346 14.399 1.70523C14.3867 2.01669 14.2227 2.27097 14.0866 2.45368C13.9452 2.64348 13.7442 2.86813 13.512 3.12758L9.75314 7.32868C9.70048 7.38753 9.67334 7.41805 9.6542 7.44137C9.64912 7.44756 9.64588 7.45173 9.644 7.45422C9.64288 7.45661 9.64194 7.45909 9.64117 7.46162C9.64091 7.46473 9.64055 7.46999 9.64021 7.47799C9.63892 7.50814 9.6388 7.54898 9.6388 7.62795V11.133C9.6388 11.1406 9.63888 11.1492 9.63897 11.1588C9.63983 11.2503 9.6415 11.4263 9.58027 11.5904C9.52856 11.729 9.44445 11.8533 9.33497 11.9528C9.20533 12.0706 9.04125 12.1344 8.95602 12.1675C8.9471 12.171 8.93905 12.1742 8.93198 12.177L6.68578 13.0755C6.58082 13.1175 6.4679 13.1627 6.36886 13.1922C6.26273 13.2239 6.09384 13.2635 5.90025 13.2233C5.66088 13.1736 5.45082 13.0313 5.31573 12.8276C5.20648 12.6628 5.18054 12.4912 5.17053 12.3809C5.16119 12.278 5.16122 12.1564 5.16125 12.0433L5.16126 7.62795C5.16126 7.54898 5.16113 7.50814 5.15984 7.47799C5.1595 7.46999 5.15914 7.46473 5.15888 7.46162C5.15812 7.45909 5.15717 7.45661 5.15605 7.45421C5.15417 7.45173 5.15093 7.44756 5.14585 7.44137C5.12671 7.41805 5.09957 7.38753 5.04692 7.32868L1.30643 3.14814C1.30027 3.14125 1.29414 3.1344 1.28802 3.12756C1.05587 2.86812 0.854854 2.64348 0.713471 2.45368C0.577372 2.27097 0.413384 2.01669 0.401015 1.70523C0.385457 1.31346 0.553816 0.936911 0.856155 0.687273C1.09651 0.488812 1.39536 0.44147 1.62227 0.421069C1.85799 0.399876 2.15944 0.399888 2.50759 0.399903ZM1.60589 1.63321C1.61768 1.65361 1.63895 1.68733 1.67582 1.73682C1.78094 1.87794 1.94486 2.06202 2.20072 2.34798L5.94121 6.52853C5.94785 6.53595 5.95464 6.5435 5.96155 6.55119C6.03923 6.63764 6.13208 6.74095 6.20091 6.86375C6.26077 6.97052 6.30469 7.08547 6.33128 7.20495C6.36186 7.34237 6.36155 7.48127 6.3613 7.59749C6.36128 7.60783 6.36126 7.61798 6.36126 7.62795V11.9128L8.4388 11.0818V7.62795C8.4388 7.61799 8.43877 7.60783 8.43875 7.5975C8.4385 7.48127 8.4382 7.34237 8.46878 7.20495C8.49537 7.08547 8.53928 6.97052 8.59914 6.86375C8.66797 6.74095 8.76082 6.63764 8.8385 6.55119C8.84541 6.5435 8.8522 6.53595 8.85885 6.52853L12.5993 2.34798C12.8552 2.06203 13.0191 1.87794 13.1242 1.73682C13.1611 1.68733 13.1824 1.65361 13.1942 1.63321C13.1711 1.6284 13.1318 1.62177 13.0703 1.61625C12.8951 1.60049 12.6486 1.5999 12.2649 1.5999H2.53519C2.15148 1.5999 1.905 1.60049 1.72973 1.61625C1.66826 1.62177 1.62896 1.6284 1.60589 1.63321Z" fill="black"/>
</svg>
