<svg width="20" height="20" viewBox="0 0 20 20" fill="none" xmlns="http://www.w3.org/2000/svg">
<path d="M10 20C15.5228 20 20 15.5228 20 10C20 4.47715 15.5228 0 10 0C4.47715 0 0 4.47715 0 10C0 15.5228 4.47715 20 10 20Z" fill="#00DB82"/>
<path d="M15.6702 5.69L14.7652 6.555C14.6852 6.615 14.6502 6.715 14.6652 6.805V13.185C14.6502 13.285 14.6902 13.38 14.7652 13.435L15.6502 14.3V14.49H11.2052V14.305L12.1202 13.415C12.2102 13.325 12.2102 13.3 12.2102 13.165V8.01L9.6652 14.475H9.3202L6.3552 8.01V12.34C6.3302 12.52 6.3952 12.705 6.5202 12.835L7.7102 14.28V14.47H4.3252V14.28L5.5152 12.835C5.6452 12.705 5.7002 12.52 5.6702 12.34V7.34C5.6852 7.2 5.6302 7.065 5.5252 6.97L4.4652 5.695V5.505H7.7552L10.2952 11.08L12.5302 5.51H15.6652V5.7L15.6702 5.69Z" fill="white"/>
</svg>
