<svg width="20" height="20" viewBox="0 0 20 20" fill="none" xmlns="http://www.w3.org/2000/svg">
<path d="M10 20C15.5228 20 20 15.5228 20 10C20 4.47715 15.5228 0 10 0C4.47715 0 0 4.47715 0 10C0 15.5228 4.47715 20 10 20Z" fill="#00DB82"/>
<path d="M15.6701 6.00006L13.7951 14.8301C13.6651 15.4551 13.2851 15.6101 12.7601 15.3201L9.90511 13.2101L8.53511 14.5401C8.37511 14.7001 8.24511 14.8301 7.96511 14.8301L8.16011 11.9151L13.4551 7.14506C13.6901 6.93006 13.4051 6.83006 13.0951 7.01506L6.56011 11.1451L3.73511 10.2501C3.13011 10.0801 3.12011 9.65506 3.87511 9.35506L14.8751 5.10506C15.3801 4.87506 15.8601 5.23006 15.6701 6.00006Z" fill="white"/>
</svg>
