<svg width="10" height="12" viewBox="0 0 10 12" fill="none" xmlns="http://www.w3.org/2000/svg">
<path d="M4.42689 11.8504C4.56111 11.9287 4.62822 11.9679 4.72293 11.9882C4.79643 12.0039 4.90367 12.0039 4.97717 11.9882C5.07188 11.9679 5.13899 11.9287 5.27321 11.8504C6.45423 11.1614 9.7001 8.99711 9.7001 6.02134V3.12198C9.7001 2.63727 9.7001 2.39491 9.62082 2.18659C9.55079 2.00255 9.43699 1.83834 9.28926 1.70814C9.12204 1.56077 8.89511 1.47567 8.44126 1.30548L5.19064 0.0864967C5.0646 0.0392325 5.00158 0.0156004 4.93675 0.0062321C4.87925 -0.00207737 4.82085 -0.00207737 4.76334 0.0062321C4.69851 0.0156004 4.63549 0.0392325 4.50946 0.0864967L1.25883 1.30548C0.804986 1.47567 0.578062 1.56077 0.410834 1.70814C0.263105 1.83834 0.149305 2.00255 0.0792743 2.18659C0 2.39491 0 2.63727 0 3.12198V6.02134C0 8.99711 3.24587 11.1614 4.42689 11.8504Z" fill="#5EB1FF"/>
<path d="M2.66675 5.66667L4.00008 7L7.00008 4" stroke="white" stroke-width="1.2" stroke-linecap="round" stroke-linejoin="round"/>
</svg>
