<?xml version="1.0" standalone="no"?><!DOCTYPE svg PUBLIC "-//W3C//DTD SVG 1.1//EN" "http://www.w3.org/Graphics/SVG/1.1/DTD/svg11.dtd"><svg t="1573805975970" class="icon" viewBox="0 0 1024 1024" version="1.1" xmlns="http://www.w3.org/2000/svg" p-id="1740" xmlns:xlink="http://www.w3.org/1999/xlink" width="200" height="200"><defs><style type="text/css"></style></defs><path d="M512.285938 0C230.008265 0 0.4575 229.550765 0.4575 511.828437s229.550765 511.828437 511.828438 511.828438S1024.114375 794.10611 1024.114375 511.828437 794.449235 0 512.285938 0z m0 996.321233c-267.180163 0-484.492796-217.312633-484.492796-484.492796s217.312633-484.492796 484.492796-484.492795 484.492796 217.312633 484.492795 484.492795-217.312633 484.492796-484.492795 484.492796zM388.532112 350.330839h167.559477c15.097509 0 27.335642-12.238132 27.335642-27.335642s-12.238132-27.335642-27.335642-27.335642H388.532112c-15.097509 0-27.335642 12.238132-27.335642 27.335642s12.352508 27.335642 27.335642 27.335642z m0 86.238802h103.623813c15.097509 0 27.335642-12.238132 27.335642-27.335641s-12.238132-27.335642-27.335642-27.335642h-103.623813c-15.097509 0-27.335642 12.238132-27.335642 27.335642 0.114375 15.097509 12.352508 27.335642 27.335642 27.335641z m277.359544-234.011392H358.565844c-45.178153 0-81.89255 36.714397-81.89255 81.89255v454.869652c0 45.178153 36.714397 81.89255 81.89255 81.89255h307.325812c45.178153 0 81.89255-36.714397 81.89255-81.89255V284.450799c0-45.178153-36.714397-81.89255-81.89255-81.89255z m27.335642 536.762202c0 15.097509-12.238132 27.335642-27.335642 27.335642H358.565844c-15.097509 0-27.335642-12.238132-27.335642-27.335642V284.450799c0-15.097509 12.238132-27.335642 27.335642-27.335642h307.325812c15.097509 0 27.335642 12.238132 27.335642 27.335642v454.869652zM569.473473 545.683458c-10.636881-10.636881-27.907517-10.636881-38.544399 0l-18.643136 18.643136-18.643137-18.643136c-10.636881-10.636881-27.907517-10.636881-38.544398 0-10.636881 10.636881-10.636881 27.907517 0 38.544399l18.643136 18.643136-18.643136 18.643136c-10.636881 10.636881-10.636881 27.907517 0 38.544399 5.375628 5.375628 12.352508 8.006255 19.329387 8.006255s13.953759-2.630627 19.329386-8.006255l18.643137-18.643137 18.643136 18.643137c5.375628 5.375628 12.352508 8.006255 19.329387 8.006255s13.953759-2.630627 19.329387-8.006255c10.636881-10.636881 10.636881-27.907517 0-38.544399l-18.643137-18.643136 18.643137-18.643136c10.522506-10.636881 10.522506-27.907517-0.22875-38.544399z m-57.187535-98.59131c-85.895677 0-155.89322 69.883168-155.89322 155.89322s69.883168 155.89322 155.89322 155.89322S668.064783 688.881045 668.064783 602.985368 598.181615 447.092148 512.285938 447.092148z m0 257.115157c-55.815034 0-101.221937-45.406903-101.221937-101.221937s45.406903-101.221937 101.221937-101.221937 101.221937 45.406903 101.221936 101.221937-45.406903 101.221937-101.221936 101.221937z" fill="#d81e06" p-id="1741"></path></svg>